PathFileType	4	(X/Y/Z)	C:/Users/opensim2020/Desktop/walking_exp_matlab/subject06_walking20_straight_04.trc																																																																																																																															
DataRate	CameraRate	NumFrames	NumMarkers	Units	OrigDataRate	OrigDataStartFrame	OrigNumFrames																																																																																																																											
100	100	4	43	mm	100	2252	126																																																																																																																											
Frame#	Time	LFHD			RFHD			LBHD			RBHD			C7			T10			CLAV			STRN			RBAK			LSHO			LUPA			LELB			LFRM			LWRA			LWRB			LFIN			RSHO			RUPA			RELB			RFRM			RWRA			RWRB			RFIN			LASI			RASI			LPSI			RPSI			LTHI			LKNE			LTIB			LANK			LHEE			LTOE			RTHI			RKNE			RTIB			RANK			RHEE			RTOE			*39			*40			*41			*42		
		X1	Y1	Z1	X2	Y2	Z2	X3	Y3	Z3	X4	Y4	Z4	X5	Y5	Z5	X6	Y6	Z6	X7	Y7	Z7	X8	Y8	Z8	X9	Y9	Z9	X10	Y10	Z10	X11	Y11	Z11	X12	Y12	Z12	X13	Y13	Z13	X14	Y14	Z14	X15	Y15	Z15	X16	Y16	Z16	X17	Y17	Z17	X18	Y18	Z18	X19	Y19	Z19	X20	Y20	Z20	X21	Y21	Z21	X22	Y22	Z22	X23	Y23	Z23	X24	Y24	Z24	X25	Y25	Z25	X26	Y26	Z26	X27	Y27	Z27	X28	Y28	Z28	X29	Y29	Z29	X30	Y30	Z30	X31	Y31	Z31	X32	Y32	Z32	X33	Y33	Z33	X34	Y34	Z34	X35	Y35	Z35	X36	Y36	Z36	X37	Y37	Z37	X38	Y38	Z38	X39	Y39	Z39	X40	Y40	Z40	X41	Y41	Z41	X42	Y42	Z42	X43	Y43	Z43
																																																																																																																																		
95	0.94	218.6823	1641.99915	-1491.68396	203.6096	1620.46582	-1361.70142	84.66906	1592.62158	-1510.8927	71.19627	1576.71448	-1383.26001	73.42075	1426.96521	-1459.42578	44.76765	1095.96887	-1450.82764	185.26433	1350.92822	-1455.57996	228.39119	1176.63879	-1467.28235	0.6762	1253.54187	-1387.10193	130.43121	1386.30737	-1618.12427	149.84155	1192.76489	-1704.29846	167.29546	1084.11719	-1727.22986	276.2814	985.42346	-1741.80261	391.34326	945.62134	-1684.86902	358.8912	900.63531	-1728.28931	445.74826	881.38245	-1724.35742	133.81773	1377.83984	-1294.94861	48.39206	1194.1853	-1215.64014	23.31038	1074.88989	-1202.39929	-9.06152	959.91467	-1180.19739	-9.04692	805.13037	-1198.75769	-61.61312	832.73315	-1165.35107	-64.19656	747.66211	-1158.59729	216.10001	941.29156	-1572.2384	234.64696	945.88983	-1349.69104	59.66963	964.84991	-1525.82031	81.49141	961.19153	-1359.10925	109.91897	634.42377	-1623.42932	76.0853	471.38031	-1600.10974	-64.01017	250.37555	-1594.77527	-143.0695	96.64195	-1549.16467	-189.8102	97.49512	-1507.4491	-13.5149	38.54936	-1538.9408	271.28586	625.505	-1282.08142	330.05945	516.68042	-1312.97144	365.36569	255.92	-1315.03357	410.01956	77.13339	-1360.30066	379.8082	53.89979	-1408.62268	573.30554	39.47092	-1367.3219	113.25706	1678.75269	-1440.53015	NaN	NaN	NaN	NaN	NaN	NaN	NaN	NaN	NaN
96	0.95	233.79027	1641.08154	-1489.96753	218.61165	1619.3512	-1360.05261	99.79203	1591.677	-1509.42163	86.22316	1575.46692	-1381.85229	88.292	1425.89954	-1458.20203	60.80761	1094.60547	-1450.12524	200.47009	1349.96936	-1454.19788	244.05502	1175.80371	-1465.95947	16.00188	1252.11328	-1386.33813	145.47446	1385.25928	-1616.78381	164.87013	1191.98535	-1702.79492	182.8504	1083.44592	-1726.20764	294.04651	987.68829	-1740.20349	409.50894	951.8158	-1682.75562	378.80264	905.04962	-1725.40979	466.60352	890.23273	-1721.77271	148.77885	1376.60596	-1293.58533	63.0481	1193.15747	-1214.29675	37.48383	1073.95276	-1200.99023	4.59066	959.21014	-1178.70776	3.58432	804.41284	-1197.05298	-48.74936	832.29608	-1163.78345	-51.79689	747.33179	-1156.92688	232.45894	940.04541	-1571.06213	251.77151	946.01465	-1348.72827	76.28606	963.50037	-1525.05042	98.15715	960.84442	-1358.46521	125.57894	633.23419	-1622.82837	91.13555	470.24811	-1600.03882	-55.59213	253.5135	-1595.15442	-139.65236	102.30926	-1550.49011	-186.28233	104.93237	-1508.94836	-12.81757	38.49506	-1538.9563	290.04022	626.25421	-1282.05518	347.42349	517.16382	-1313.44897	381.30951	254.98424	-1315.80627	425.00381	76.52699	-1361.45789	394.65942	52.85816	-1409.84265	588.57288	38.70746	-1369.17969	128.25279	1677.6626	-1438.8927	NaN	NaN	NaN	NaN	NaN	NaN	NaN	NaN	NaN
97	0.96	248.85786	1640.47607	-1488.24683	233.59702	1618.55225	-1358.42676	114.82181	1591.15649	-1507.85181	101.18491	1574.82019	-1380.33423	103.22421	1425.04382	-1456.80603	76.96957	1093.49243	-1449.32092	215.48282	1349.41516	-1452.76074	259.74539	1175.42334	-1464.6217	31.35791	1250.83508	-1385.48083	160.31699	1384.67273	-1615.38037	179.76064	1191.67371	-1701.4071	198.22684	1083.15381	-1724.84155	310.8515	989.54956	-1738.26941	426.68329	956.86725	-1680.84424	397.40894	908.26593	-1722.53796	485.75818	897.43152	-1719.36279	163.57104	1375.81116	-1292.1814	77.7258	1192.45032	-1212.93079	52.23428	1073.35364	-1199.60339	18.82828	958.68658	-1177.18408	17.32505	803.91565	-1195.38892	-34.75643	831.93658	-1162.1012	-37.98605	747.01758	-1155.11987	249.01425	939.22614	-1569.84192	268.91165	946.3064	-1348.02673	93.1862	962.53601	-1524.17346	115.10194	960.83783	-1357.63208	142.10435	632.10614	-1622.10681	107.80539	469.03625	-1599.91211	-46.03127	257.21432	-1595.28308	-135.29114	108.89877	-1551.61255	-181.634	113.67452	-1510.09326	-12.06757	38.41711	-1538.87781	308.40118	626.99402	-1282.14673	364.74323	517.46844	-1313.45056	395.81747	253.98674	-1316.61194	437.0993	75.21548	-1362.92566	406.50644	51.13375	-1411.60608	601.0683	38.16222	-1370.55176	143.36426	1677.05457	-1437.23523	NaN	NaN	NaN	NaN	NaN	NaN	NaN	NaN	NaN
98	0.97	263.8844	1640.12097	-1486.58862	248.58548	1618.11829	-1356.77222	129.79739	1591.09436	-1506.36609	116.11266	1574.64624	-1378.79297	117.83924	1424.46143	-1455.21582	93.14927	1092.74841	-1448.36194	230.48395	1349.33057	-1451.32324	275.51968	1175.58093	-1463.24084	46.79982	1249.69519	-1384.46704	174.84952	1384.47058	-1613.85217	194.71509	1191.74609	-1700.11487	213.51126	1083.18188	-1723.16357	326.8967	990.89923	-1736.25195	442.94855	960.72607	-1679.0824	414.89819	910.62573	-1719.82983	503.46902	902.99945	-1717.24243	178.18762	1375.40051	-1290.73438	92.56344	1192.0918	-1211.49292	67.19096	1072.99414	-1198.03979	33.74677	958.30225	-1175.6156	32.23647	803.65021	-1193.69678	-19.85127	831.58331	-1160.39099	-23.11444	746.78699	-1153.21741	265.74753	938.80615	-1568.51819	286.26563	946.73993	-1347.26514	110.15396	962.00763	-1523.07959	132.52071	961.16077	-1356.47278	159.42503	630.98505	-1621.31702	126.3153	467.65353	-1599.76208	-35.26392	261.52411	-1595.12341	-129.72285	116.61991	-1552.49902	-175.32988	123.75864	-1510.97217	-11.23899	38.3329	-1538.75403	326.31735	627.54181	-1282.09106	381.32382	517.35724	-1313.19519	409.15549	252.93266	-1317.0835	446.87073	73.51092	-1364.38159	416.29227	49.51386	-1412.20581	611.20837	37.80138	-1371.48474	158.50999	1676.86914	-1435.53418	NaN	NaN	NaN	NaN	NaN	NaN	NaN	NaN	NaN
